<svg xmlns="http://www.w3.org/2000/svg" xmlns:xlink="http://www.w3.org/1999/xlink" preserveAspectRatio="xMidYMid meet" version="1.0" viewBox="1.0 1.0 510.0 510.0" zoomAndPan="magnify" style="fill: rgb(0, 0, 0);" original_string_length="1945" width="35.60003468375704px" height="35.60003468375704px"><g><g id="__id1_s0lnxtuy7d"><path d="M126,71h42.192l8.026,32.104l19.943,109.685c0.864,4.755,5.006,8.211,9.839,8.211h160c4.833,0,8.975-3.456,9.839-8.211 l20-110C396.957,96.634,392.217,91,386,91H193.808l-8.106-32.426C184.589,54.123,180.589,51,176,51h-50c-5.522,0-10,4.478-10,10 S120.478,71,126,71z M374.018,111l-16.363,90H214.346l-16.363-90H374.018z" style="fill: inherit;"/><path d="M236,241c-16.542,0-30,13.458-30,30s13.458,30,30,30s30-13.458,30-30S252.542,241,236,241z M236,281 c-5.514,0-10-4.486-10-10s4.486-10,10-10s10,4.486,10,10S241.514,281,236,281z" style="fill: inherit;"/><path d="M326,241c-16.542,0-30,13.458-30,30s13.458,30,30,30s30-13.458,30-30S342.542,241,326,241z M326,281 c-5.514,0-10-4.486-10-10s4.486-10,10-10s10,4.486,10,10S331.514,281,326,281z" style="fill: inherit;"/><circle cx="461" cy="381" r="10" style="fill: inherit;"/><path d="M421,371h-10c-5.522,0-10,4.478-10,10s4.478,10,10,10h10c5.522,0,10-4.478,10-10S426.522,371,421,371z" style="fill: inherit;"/><path d="M371,371h-10c-5.522,0-10,4.478-10,10s4.478,10,10,10h10c5.522,0,10-4.478,10-10S376.522,371,371,371z" style="fill: inherit;"/><path d="M456.08,1H55.92C25.637,1,1,25.637,1,55.92v320.16C1,406.363,25.637,431,55.92,431H206v20h-10c-27.57,0-50,22.43-50,50 c0,5.522,4.477,10,10,10h200c5.522,0,10-4.478,10-10c0-27.57-22.43-50-50-50h-10v-20h150.08c30.283,0,54.92-24.637,54.92-54.92 V55.92C511,25.637,486.363,1,456.08,1z M55.92,21h400.16C475.335,21,491,36.665,491,55.92V331H21V55.92 C21,36.665,36.665,21,55.92,21z M344.286,491H167.714c4.127-11.641,15.249-20,28.286-20h120 C329.037,471,340.159,479.359,344.286,491z M286,451h-60v-20h60V451z M456.08,411H55.92C36.665,411,21,395.335,21,376.08V351h470 v25.08C491,395.335,475.335,411,456.08,411z" style="fill: inherit;"/></g></g></svg>